<?xml version="1.0" encoding="utf-8"?>
<!-- Generator: Adobe Illustrator 24.0.2, SVG Export Plug-In . SVG Version: 6.00 Build 0)  -->
<svg version="1.1" id="Layer_1" xmlns="http://www.w3.org/2000/svg" xmlns:xlink="http://www.w3.org/1999/xlink" x="0px" y="0px"
	 width="35" height="35"  viewBox="0 0 35 35" style="enable-background:new 0 0 35 35;" xml:space="preserve">
<style type="text/css">
	.st0{fill:#0B24FA;}
	.st1{fill:#FFFFFF;}
</style>
<g id="contact-trace" transform="translate(-0.252 -0.114)">
	<circle id="Ellipse_51" class="st0" cx="17.8" cy="17.6" r="17.5"/>
	<g id="Group_369" transform="translate(6.447 7.389)">
		<g>
			<g>
				<g>
					<path class="st1" d="M10.8,1c-4,0-7.2,3.2-7.2,7.2s3.2,7.2,7.2,7.2s7.2-3.2,7.2-7.2S14.7,1,10.8,1z M10.8,14.7
						c-3.6,0-6.5-2.9-6.5-6.5s2.9-6.5,6.5-6.5s6.5,2.9,6.5,6.5S14.3,14.7,10.8,14.7z"/>
					<path class="st1" d="M22.9,17.8L19.1,14l0.4-0.4l-0.5-0.5l-0.4,0.4l-0.7-0.7c0.9-1.3,1.4-2.9,1.4-4.6c0-4.7-3.8-8.6-8.6-8.6
						S2.2,3.5,2.2,8.2s3.8,8.6,8.6,8.6c1.7,0,3.3-0.5,4.6-1.4l0.7,0.7l-0.4,0.4l0.5,0.5l0.4-0.4l3.8,3.8c0.3,0.3,0.8,0.5,1.3,0.5
						c1,0,1.8-0.8,1.8-1.8C23.4,18.6,23.2,18.1,22.9,17.8z M10.8,16c-4.3,0-7.9-3.5-7.9-7.9s3.5-7.9,7.9-7.9s7.9,3.5,7.9,7.9
						S15.1,16,10.8,16z M16,15c0.6-0.5,1.1-1,1.6-1.6l0.6,0.6l-1.6,1.6L16,15z M21.6,20.2c-0.3,0-0.6-0.1-0.8-0.3L17.1,16l1.6-1.6
						l3.8,3.8c0.2,0.2,0.3,0.5,0.3,0.8C22.7,19.7,22.2,20.2,21.6,20.2z"/>
					<path class="st1" d="M10.8,2.9L5.3,7.1H7v5.5h7.5V7.1h1.7L10.8,2.9z M11.8,11.9H9.7v-1.7c0-0.6,0.5-1,1-1c0.6,0,1,0.5,1,1V11.9
						z M13.8,11.9h-1.4v-1.7c0-0.9-0.8-1.7-1.7-1.7C9.8,8.5,9,9.3,9,10.2v1.7H7.7V7.1h6.2V11.9z M7.3,6.5l3.4-2.6l3.4,2.6H7.3z"/>
				</g>
			</g>
		</g>
	</g>
</g>
</svg>
